<?xml version="1.0" encoding="UTF-8"?>
<svg id="Calque_1" xmlns="http://www.w3.org/2000/svg" version="1.1" viewBox="0 0 1056.1 282.7">
  <!-- Generator: Adobe Illustrator 29.3.1, SVG Export Plug-In . SVG Version: 2.1.0 Build 151)  -->
  <defs>
    <style>
      .st0 {
        fill: #b0cc4e;
      }

      .st1 {
        fill: #c6cd2c;
      }

      .st2 {
        fill: #e10814;
      }

      .st3 {
        fill: #448d60;
      }

      .st4 {
        fill: #64c6f1;
      }

      .st5 {
        fill: #f7d05c;
      }

      .st6 {
        fill: #96ab5b;
      }

      .st7 {
        fill: #5a71b4;
      }

      .st8 {
        fill: #fdeb7d;
      }

      .st9 {
        fill: #fbbf0d;
      }

      .st10 {
        fill: #7e97ce;
      }

      .st11 {
        isolation: isolate;
      }

      .st12 {
        fill: #ef7757;
      }

      .st13 {
        fill: #73b0a5;
      }

      .st14 {
        fill: #60b467;
      }

      .st15 {
        fill: #405678;
      }

      .st16 {
        fill: #293173;
      }

      .st17 {
        fill: #9d9d9c;
      }

      .st18 {
        fill: #f49d54;
      }

      .st19 {
        fill: #ea6409;
      }
    </style>
  </defs>
  <path d="M54.2,99.3v5.6h2.6c1.9,0,3.1-1,3.1-2.8s-1.1-2.7-3.1-2.7h-2.6ZM49.7,95.4h6.9c5,0,8,2.5,8,6.7.1,2.5-1.3,4.8-3.6,5.8l7.1,9.9h-5.5l-6-9h-2.3v9h-4.6v-22.3Z"/>
  <path d="M75.3,93.5l3.7-4.3h4.7l-4.2,4.3h-4.2ZM70.9,95.4h13.1v3.9h-8.6v5.2h7.3v3.9h-7.3v5.6h8.6v3.9h-13.1v-22.3Z"/>
  <path d="M93.9,99.3v5.6h3.1c1.9,0,3.1-1,3.1-2.8s-1.2-2.7-3.1-2.7h-3.1ZM89.3,95.4h7.4c5,0,8,2.5,8,6.7s-3,6.6-8,6.6h-2.9v9h-4.6v-22.3Z"/>
  <path d="M121.8,95.4h4.6v13.6c0,5.9-3.5,9.4-9.1,9.4s-9.1-3.5-9.1-9.4v-13.6h4.6v14c0,3,1.7,4.8,4.6,4.8s4.5-1.8,4.5-4.8v-14Z"/>
  <path d="M136.6,108v5.8h2.6c2.1,0,3.4-1.1,3.4-3s-1.3-2.9-3.4-2.9h-2.6ZM136.6,99.2v4.9h1.9c1.7,0,2.7-.9,2.7-2.5s-1-2.4-2.7-2.4h-1.9ZM132,95.4h6.4c4.7,0,7.5,2.3,7.5,6.1,0,1.8-.9,3.4-2.4,4.4,2.2.8,3.7,2.9,3.7,5.3,0,4.1-3.2,6.6-8.4,6.6h-6.9v-22.3Z"/>
  <polygon points="151.9 95.4 156.5 95.4 156.5 113.6 165.1 113.6 165.1 117.7 151.9 117.7 151.9 95.4 151.9 95.4"/>
  <polygon points="169.1 95.4 173.7 95.4 173.7 117.7 169.1 117.7 169.1 95.4 169.1 95.4"/>
  <path d="M197.2,106.6c-.2-4-3.5-7.1-7.6-7-4,.2-7.1,3.5-7,7.6.2,3.9,3.4,7,7.3,7,4,0,7.2-3.2,7.2-7.2,0-.1,0-.3,0-.4ZM203.6,119.3c.5,0,1.1,0,1.6-.2v3.8c-.8.3-1.6.4-2.4.4-2.6,0-5.1-1.1-7.1-2.9l-2.7-2.3c-6.3,1.7-12.8-1.9-14.6-8.2-1.7-6.3,1.9-12.8,8.2-14.6,1.1-.3,2.1-.4,3.2-.4,6.4-.2,11.8,4.9,11.9,11.4,0,.1,0,.3,0,.4,0,3.6-1.6,7.1-4.4,9.3l1.4,1.3c1.2,1.3,2.9,2.1,4.7,2.1Z"/>
  <path d="M219.6,95.4h4.6v13.6c0,5.9-3.5,9.4-9.1,9.4s-9.1-3.5-9.1-9.4v-13.6h4.6v14c0,3,1.7,4.8,4.6,4.8s4.5-1.8,4.5-4.8v-14h0Z"/>
  <polygon points="229.8 95.4 243 95.4 243 99.3 234.4 99.3 234.4 104.4 241.7 104.4 241.7 108.3 234.4 108.3 234.4 113.9 243 113.9 243 117.7 229.8 117.7 229.8 95.4 229.8 95.4"/>
  <polygon points="49.7 127.6 62.8 127.6 62.8 131.5 54.2 131.5 54.2 136.6 61.5 136.6 61.5 140.5 54.2 140.5 54.2 149.9 49.7 149.9 49.7 127.6 49.7 127.6"/>
  <path d="M71.4,131.5v5.6h2.6c1.9,0,3.1-1,3.1-2.8s-1.1-2.7-3.1-2.7h-2.6ZM66.8,127.6h6.9c5,0,8,2.5,8,6.7,0,2.5-1.3,4.8-3.6,5.8l7.1,9.9h-5.4l-6-9h-2.3v9h-4.6v-22.3Z"/>
  <path d="M100.8,140.3l-3.1-8.4-3.1,8.4h6.2ZM94.7,127.6h6l8.5,22.3h-4.9l-2.2-5.8h-9l-2.2,5.8h-4.8s8.5-22.3,8.5-22.3Z"/>
  <polygon points="112.7 127.6 118.5 127.6 128.6 143.6 128.6 127.6 133.2 127.6 133.2 149.9 127.3 149.9 117.2 133.9 117.2 149.9 112.7 149.9 112.7 127.6 112.7 127.6"/>
  <path d="M155.4,143.3l3.6,2.7c-1.9,2.5-4.7,4.1-7.7,4.4l-2.8,4.6h-4.1l2.8-4.7c-6.4-1.3-10.5-7.6-9.1-14s7.6-10.5,14-9.1c2.7.6,5.2,2.1,6.9,4.3l-3.6,2.8c-1.3-1.9-3.5-3.1-5.9-3.1-4.2.2-7.4,3.8-7.2,7.9.2,3.9,3.3,7,7.2,7.2,2.4,0,4.6-1.1,5.9-3.1h0Z"/>
  <path d="M174.6,140.3l-3.1-8.4-3.1,8.4h6.2ZM168.5,127.6h6l8.5,22.3h-4.9l-2.1-5.8h-9l-2.2,5.8h-4.8l8.5-22.3h0Z"/>
  <polygon points="186.5 127.6 191.1 127.6 191.1 149.9 186.5 149.9 186.5 127.6 186.5 127.6"/>
  <path d="M198.7,143.8c1.2,1.6,3,2.6,5,2.7,1.8,0,2.9-1,2.9-2.6,0-4-10.3-3.1-10.3-10.5s2.9-6.5,7.2-6.5c3.1,0,6,1.4,7.9,3.8l-3.4,3c-1.3-1.7-2.8-2.8-4.5-2.8-1.3-.1-2.5.8-2.6,2.2,0,0,0,.1,0,.2,0,4,10.3,3.1,10.3,10.6,0,4.1-3.4,6.7-7.5,6.7-3.2.1-6.3-1.2-8.4-3.7l3.3-3h0Z"/>
  <polygon points="216 127.6 229.1 127.6 229.1 131.5 220.5 131.5 220.5 136.6 227.8 136.6 227.8 140.5 220.5 140.5 220.5 146.1 229.1 146.1 229.1 149.9 216 149.9 216 127.6 216 127.6"/>
  <path d="M56.2,219l.2-.5c-2.2-.4-2.5-.4-1.6-2.8l.9-2.4h2.4c1.1,0,1.1.4.9,1.6h.6l1.5-3.9h-.6c-.5.9-1,1.6-2.2,1.6h-2.4l1.3-3.5c.4-1.1.6-1.3,2.1-1.3h1c1.5,0,1.7.4,1.7,1.9h.6l.5-2.7h-9.1l-.2.5c1.8.4,1.9.5,1.1,2.8l-2,5.4c-.8,2.2-1.2,2.4-3.2,2.8l-.2.5h6.5ZM68.8,212.4c.3-1.1.2-2-.7-2s-1.2.7-2.2,2.9v-1.3c0-.9-.3-1.6-1.1-1.6s-1.8,1.4-2.4,2.8h.4c.4-.6.8-1,1.2-1s.6.6,0,1.9l-1.8,3.9c-.3.7,0,1.2.7,1.2.4,0,.8-.2.8-.6l1.8-4.6c.5-.6.9-1.1,1.5-1.7h1.7ZM76.8,210.1h-.7c0,0-.8.7-.8.7h-.2c-3.8,0-7,4.2-7,7.2,0,.7.5,1.3,1.2,1.3,0,0,.1,0,.2,0,1,0,1.9-1.4,3-2.9v.5c-.1,1.5.3,2.3,1.1,2.3s1.8-1.4,2.4-2.8h-.4c-.4.6-.9,1-1.2,1s-.6-.6,0-2l2.4-5.5h0ZM69.8,216.8c0-2,2.3-4.8,3.5-4.8.3,0,.5,0,.8.1l-1.3,3.5c-.8.9-1.9,2-2.5,2s-.5-.3-.5-.9M78.2,211.7h1.5l-2.4,6.5c-.2.4,0,.8.3,1,.1,0,.2,0,.3,0,1.9-.2,3.5-1.4,4.4-3.2h-.4c-.8.8-1.7,1.4-2.8,1.7l2.2-6.1h2.3l.3-.9h-2.1l.8-2.4h-.9l-1.6,2.3-1.9.3v.7h0ZM89,216.1h-.6c-.5.8-1.3,1.3-2.2,1.5-.8,0-1.2-.5-1.2-1.5,0-.4,0-.8.1-1.2l4.6-1.5c.9-2.1-.2-3-1.4-3-2.2,0-4.6,3.6-4.6,6.7s.7,2.2,1.7,2.2,2.5-1.2,3.6-3.2M87.4,211.6c.6,0,1.1.4.9,1.6l-2.8.6c.5-1.3,1.3-2.3,2-2.3M97.6,212.4c.3-1.1.2-2-.7-2s-1.2.7-2.2,2.9v-1.2c0-.9-.3-1.6-1.1-1.6s-1.8,1.4-2.4,2.8h.4c.4-.6.9-1,1.2-1s.6.6,0,1.9l-1.8,3.9c-.3.7,0,1.2.7,1.2.4,0,.8-.2.8-.6l1.8-4.6c.5-.6.9-1.1,1.5-1.7h1.7ZM97.6,218.1c-.3.7,0,1.2.7,1.2.4,0,.8-.2.8-.6l1.8-4.6c.8-1,1.9-1.7,3.1-2,.5,0,.4.4,0,1l-2.7,5.1c-.2.4,0,.8.3,1,.1,0,.2,0,.4,0,1.6-.2,3-1.3,3.5-2.8h-.4c-.4.7-1.1,1.2-1.8,1.4l2.3-4.6c.3-.5.4-1,.4-1.6,0-.6-.4-1.2-1-1.2,0,0-.1,0-.2,0-1.1,0-2.3,1.3-3.7,2.9v-1.3c0-.9-.3-1.6-1.1-1.6s-1,.4-1.4,1v.2c.9,0,1.2,1.2.6,2.6l-1.8,3.9h0ZM112.1,208.1c.6,0,1.1-.5,1.1-1.1,0,0,0,0,0,0,0-.6-.5-1.1-1.1-1.1-.6,0-1.1.5-1.1,1.1,0,0,0,0,0,0,0,.6.5,1.1,1.1,1.1,0,0,0,0,0,0M111.7,211.4c.2-.3,0-.7-.3-.9,0,0-.1,0-.2,0-1.6.2-3,1.3-3.5,2.8h.4c.4-.7,1.1-1.2,1.8-1.4l-2.5,6.5c-.2.3,0,.7.3.9,0,0,.2,0,.3,0,1.6-.2,2.9-1.3,3.3-2.8h-.4c-.4.7-1.1,1.2-1.8,1.4l2.7-6.5h0ZM113.7,211.7h1.5l-2.4,6.5c-.2.4,0,.8.3,1,.1,0,.2,0,.3,0,1.9-.2,3.5-1.4,4.4-3.2h-.4c-.8.8-1.7,1.4-2.8,1.7l2.2-6.1h2.3l.3-.9h-2.2l.8-2.4h-.9l-1.6,2.4-1.9.3v.7h0ZM123.6,209.6l3.2-3v-.3h-1.7l-2,3.3h.5ZM124.5,216.2h-.5c-.5.8-1.3,1.3-2.2,1.5-.8,0-1.2-.5-1.2-1.5,0-.4,0-.8.1-1.2l4.6-1.5c.9-2.1-.2-3-1.4-3-2.2,0-4.6,3.6-4.6,6.7s.7,2.2,1.7,2.2,2.5-1.2,3.6-3.2M123,211.6c.6,0,1.1.4.9,1.6l-2.8.6c.5-1.3,1.3-2.3,2-2.3"/>
  <path d="M59.4,185.7l3.2-2.2v-.3h-2l-1.8,2.5h.5ZM58.1,192.6c1.1,0,1.1.4.9,1.6h.6l1.5-3.9h-.6c-.5.9-1,1.6-2.2,1.6h-2.3l1.2-3.3c.4-1.1.6-1.3,2.1-1.3h1c1.5,0,1.7.4,1.7,1.9h.6l.5-2.7h-9.1l-.2.5c1.8.4,1.9.5,1.1,2.8l-2,5.4c-.8,2.2-1.2,2.4-3.2,2.8l-.2.5h10.2l1.8-2.9h-.7c-1.2,1.3-2.9,2-4.6,2.1-2.7,0-2.5-.1-1.6-2.6l1-2.6h2.4ZM69.7,199.6c0-1-.9-1.4-2.5-1.9-1.3-.4-1.9-.5-1.9-.9,0-.5.4-.8.8-1,2-.1,3.5-1.7,3.6-3.7,0-.3,0-.6-.2-.9h1.8l.3-.9h-2.9c-.4-.2-.8-.3-1.2-.3-2,0-3.7,1.6-3.8,3.6,0,1.1.7,2,1.8,2.2-1.1.5-1.7,1-1.7,1.7,0,.4.2.7.4.9-2.5.7-3.5,1.5-3.5,2.7s1.5,1.6,3.3,1.6c3,0,5.6-1.6,5.6-3M66.1,195.2c-.6,0-.8-.5-.8-1,0-1.5.8-3.6,2-3.6s.8.5.8,1c0,1.4-.8,3.6-2,3.6M62.7,200.4c0-.9.8-1.4,2-1.9.6.3,1.2.5,1.8.7,1.3.4,1.7.6,1.7.9,0,.8-1.4,1.4-3.2,1.4s-2.3-.3-2.3-1.1M79.4,189.6h-.7l-.8.8h-.2c-3.8,0-7,4.2-7,7.2,0,.7.5,1.3,1.1,1.4,0,0,.1,0,.2,0,1,0,1.9-1.4,3-2.9v.5c-.2,1.5.3,2.3,1.1,2.3s1.8-1.5,2.5-2.9h-.4c-.4.6-.9,1-1.2,1s-.6-.6,0-1.9l2.4-5.5h0ZM72.4,196.3c0-2,2.3-4.7,3.5-4.7.3,0,.5,0,.8,0l-1.3,3.5c-.8.9-1.9,2-2.5,2s-.5-.3-.5-.9M81.2,197.4l4.6-12-.2-.2-2.9.3v.3l.6.4c.5.4.3.8-.1,2l-3.6,9.4c-.2.4,0,.8.3,1,.1,0,.2,0,.4,0,1.6-.2,3-1.3,3.5-2.8h-.4c-.5.7-1.2,1.2-2,1.4M90.1,187.6c.6,0,1.1-.5,1.1-1.1,0-.6-.5-1.1-1.1-1.1-.6,0-1.1.5-1.1,1.1,0,.6.5,1.1,1.1,1.1,0,0,0,0,0,0M89.6,190.9c.2-.3,0-.7-.3-.9,0,0-.2,0-.3,0-1.6.2-3,1.3-3.5,2.8h.4c.4-.7,1.1-1.2,1.8-1.4l-2.5,6.5c-.2.3,0,.7.3.9,0,0,.2,0,.3,0,1.5-.2,2.8-1.3,3.3-2.8h-.4c-.4.7-1.1,1.2-1.8,1.4l2.7-6.5h0ZM91.6,191.2h1.5l-2.4,6.5c-.2.4,0,.8.3,1,.1,0,.2,0,.4,0,1.9-.2,3.5-1.4,4.4-3.2h-.4c-.8.8-1.7,1.4-2.8,1.7l2.2-6.1h2.3l.3-.9h-2.2l.8-2.4h-.9l-1.6,2.4-1.9.3v.7h0ZM101.5,189.1l3.2-3v-.4h-1.7l-2,3.3h.5ZM102.4,195.7h-.6c-.5.8-1.3,1.3-2.2,1.5-.8,0-1.2-.5-1.2-1.5,0-.4,0-.8.1-1.2l4.6-1.5c.9-2.1-.2-3-1.4-3-2.2,0-4.6,3.6-4.6,6.7s.7,2.2,1.7,2.2,2.5-1.2,3.6-3.2M100.8,191.1c.6,0,1.1.5.9,1.6l-2.8.7c.5-1.3,1.3-2.3,2-2.3"/>
  <path d="M60,166.1h-6l-.2.5c1.8.4,1.9.5,1.1,2.8l-2,5.4c-.8,2.2-1.2,2.4-3.2,2.8l-.2.5h9.2l2-3.5h-.7c-1.1,1.2-2.4,2.8-4.5,2.8s-1.7-.3-.9-2.6l2-5.4c.8-2.2,1.2-2.4,3.2-2.8l.2-.5h0ZM66.7,167.1c.6,0,1.1-.4,1.1-1,0,0,0,0,0,0,0-.6-.5-1-1.1-1-.6,0-1,.4-1.1,1,0,.6.5,1.1,1.1,1.1,0,0,0,0,0,0M66.2,170.4c.2-.3,0-.7-.3-.9,0,0-.2,0-.3,0-1.6.2-3,1.3-3.5,2.8h.4c.4-.7,1.1-1.2,1.8-1.4l-2.5,6.6c-.2.3,0,.7.3.9,0,0,.2,0,.3,0,1.6-.2,2.9-1.3,3.4-2.8h-.4c-.4.7-1.1,1.2-1.8,1.4l2.7-6.5h0ZM75.2,171.2c0-1.3-.5-1.8-1.4-1.8s-2.2,1.2-3.3,2.7l2.7-7.1-.2-.2-2.9.3v.4l.6.4c.5.4.3.8-.1,2l-3,7.6c-.2.4-.4.9-.5,1.4,0,.8,1.1,1.5,2,1.5,2.2,0,6-4,6-7.1M70,177c-.4,0-1.1-.4-1.1-.8.1-.4.3-.9.4-1.3l.7-1.9c.8-.9,2-1.9,2.7-1.9s.7.3.7.9c0,1.8-1.7,5-3.5,5M81.2,175.1h-.6c-.5.8-1.3,1.3-2.2,1.5-.8,0-1.2-.4-1.2-1.5,0-.4,0-.8.1-1.2l4.6-1.4c.9-2.1-.2-3-1.4-3-2.2,0-4.6,3.6-4.6,6.7s.7,2.2,1.7,2.2,2.5-1.2,3.6-3.2M79.7,170.7c.6,0,1.1.5.9,1.6l-2.8.7c.5-1.3,1.3-2.3,2-2.3M89.8,171.5c.3-1.1.2-2-.7-2s-1.2.7-2.2,2.9v-1.2c0-.9-.3-1.6-1.1-1.6s-1.8,1.4-2.4,2.8h.4c.4-.6.9-1,1.2-1s.6.6,0,1.9l-1.8,3.9c-.3.7,0,1.2.8,1.2.4,0,.7-.2.8-.6l1.8-4.6c.5-.6.9-1.1,1.5-1.7h1.7ZM91,170.7h1.2l-2.4,6.5c-.2.4,0,.8.3,1,.1,0,.2,0,.4,0,1.9-.2,3.5-1.4,4.4-3.2h-.4c-.8.8-1.7,1.4-2.8,1.7l2.2-6.1h2.3l.3-.9h-2.2l.8-2.4h-.9l-1.6,2.4-1.5.2v.7h0ZM100.5,168.6l3.2-3v-.3h-1.7l-2,3.3h.5ZM101.4,175.2h-.6c-.5.8-1.3,1.3-2.2,1.5-.8,0-1.2-.4-1.2-1.5,0-.4,0-.8.1-1.2l4.6-1.5c.9-2.1-.2-3-1.4-3-2.2,0-4.6,3.6-4.6,6.7s.7,2.2,1.7,2.2,2.5-1.2,3.6-3.2M99.8,170.7c.6,0,1.1.5.9,1.6l-2.8.7c.5-1.3,1.3-2.3,2-2.3"/>
  <path class="st16" d="M73.7,72.2c0,0,.2,0,.2-.1h-.5c0,0,0,0,0-.1-.3,0-.6.2-.9.2s-.7.4-1.2.5c-.6.2-1.1.7-1.8,1,0,0,0,0,0-.1s.3-.2.4-.4,0-.1,0-.1c.5-.5,1-1,1.6-1.4v-.2c.2-.2.4-.3.6-.6.1-.2.3-.4.6-.5,0,0-.2,0-.2-.2-.2,0-.4.1-.7,0,.1,0,.2-.2.4-.2,0,0,0,0-.1,0,0-.1.1-.2.3-.3.2,0,.5,0,.7-.2-.4,0-.8.1-1.2-.1.2-.7.7-1.3,1.4-1.7h.2c0,.3-.2.5-.4.6.5,0,.9.2,1.4.3,0,.1-.2,0-.2,0,.3.2.6,0,.9.3-.2.2-.3,0-.5,0,1.8.3,3.5,1,5.1,2-1.2.6-2.5,1.1-3.9,1.3-.2,0-.3,0-.4,0,0,0,0,.2,0,.2-.2,0-.4,0-.6.1-.2.1-.6.2-.7,0h0ZM72.6,76.1h0c-.2.2-.4.3-.6.4s-.5.2-.8.4h0s0,0,0,0c-.2.1-.4.3-.6.4h0c0,.1,0,.1,0,.2h-.1c0,.2,0,.2,0,.2,0,0-.1,0-.1,0h-.3l-.2.2c-.1.1-.2.2-.3.3h0s0,0,0,0h0s0,0,0,0h0l.2-.2h0c0,0,0-.2,0-.2h0l.2-.2h0s0,0,0-.1h0c0-.1,0-.2,0-.2h0s0,0,0,0h0c0-.2,0,0,0,0,0-.1.1-.2.2-.3h0l-.2.2c0,0-.2,0-.1,0h.1c0-.2.2-.3.3-.4h.2c0-.2,0-.2.1-.3h0c.5-.5,1.4-.5,2.2-.8.3-.1.6,0,.9,0,.2,0,.4,0,.5.1-.5.3-1,.6-1.4.9v-.2ZM73.6,76.5c0,0,0,.1-.1.2,0,0,.1,0,0,0-.1.1-.3.2-.4.3h0l-.2.2c0,0-.4,0-.3,0l.4-.4c0,0,.2-.1.2-.2,0,0,0,0,.1-.1,0,0,.3,0,.3,0h0ZM71,68.2c0,.1-.1.1-.2.2,0,.1-.1.2-.2.2,0,0-.1,0-.1,0,0-.2.2-.4.4-.5h0c0,.1,0,.1,0,.1ZM66.3,71.8s0,0,0-.1c.7-.9,1.3-1.8,1.7-2.8.7-.4,1.4-1,1.9-1.6.9-1,2-1.8,3.2-2.5.5-.1,1-.1,1.5,0-.2.2-.4.2-.7.3,0,0-.1,0-.2,0,0,0,0-.1,0-.2-.6.6-1.4.9-1.8,1.6-.3.6-.6,1.3-1.3,1.4-.2,0,0-.2,0-.1-1.6,1.1-3.1,2.4-4.3,3.9h0ZM75,73.1c-.1,0-.3,0-.3,0,0-.3.4-.3.7-.4s.3-.2.4-.1.3.1.4.2c-.3.3-.8.2-1.2.3ZM83.7,77.1c.3-.3.7-.7,1-1h0c.6-.7,1.2-1.3,1.9-1.9.2-.2.4-.3.6-.5,0,0,0-.2.1-.2-.3.1-.4.3-.7.4,0,0-.1,0,0-.1l.6-.4h0c0,0,0,0,0-.1-.7,0-1.4.3-1.8.8-.1,0-.2,0-.3,0-.8.3-1.5,1-2.3,1.3h0c-.3,0-.7.2-1,.3-.5,0-.9,0-1.4,0-.7,0-1.4.2-2,.4h0c-.3,0-.7.2-1,.4h0c-.1.2-.2.3-.4.4-.3.2-.7.5-.9.7,0,0,0,0,0,0-.3.3-.6.6-.9.9,0,0-.1,0-.2,0h0l.2-.2c0,0,.1-.2.2-.3,0-.1.2-.2.2-.3,0,0,0,0,0,0,0,0,0,0,0,0,.3-.3.6-.5,1-.7h0s0,0,0,0c0,0,0,0,0-.2h0c0,0-.2.1-.3.2-.1.1-.2.4-.4.4h-.1c0,0,0-.2,0-.2h0v-.2h0c.1-.2.2-.3.4-.4h0c.2-.1.4-.2.7-.4h0c-.3,0-.6.2-.9.4h0s0,0-.1,0h0s.2-.2.3-.3.1,0,.1,0c1.7-1.7,4.1-1.4,6.3-2.2l.5-.3c.3-.1.5-.4.8-.6.5-.3.8-.8,1-1.3,0,0,0,0,0-.1-.7.8-1.6,1.4-2.5,1.8-1.2.4-2.5.7-3.7.7,0-.1.2-.1.3-.1,0-.2.1-.2.2-.3h.2s0-.1.1-.1.3,0,.2,0c-.2-.2-.5.2-.8,0,.1-.1,0-.3.2-.3h.2c0,0,0-.2.1-.2.8-.5,1.6-.9,2.4-1.3-.2,0-.3.2-.4,0,.1,0,0-.2.1-.2.6-.2,1.1-.5,1.8-.7-.2,0-.4.2-.6,0,.1,0,.2-.2.3-.2v-.2c0,0,0,0,.1,0,0,0,0,0-.1,0,0-.1.2,0,.3-.2,0,0-.2,0-.2,0,.2-.2.5-.3.7-.3,0-.1-.2,0-.2-.1s0,0,.1,0h-.2c-.1,0,0-.2,0-.2.2-.4.4-.9.5-1.3,0,0-.1,0-.1,0-.7.6-1.5.9-2.4,1h-.3c-.3.1-.7.1-1,0-.2-.1-.4-.3-.6-.4-.4-.3-.9-.5-1.4-.7-1.4-.5-2.9-.7-4.3-.6.6-.3,1.3-.4,2-.6.9-.3,1.9-.5,2.9-.6-.2,0-.4,0-.6,0-.8,0-1.6.1-2.4.3-.6.1-1.1.3-1.6.4-.3.1-.5.4-.9.4v-.2c.5-.7,1.3-1.2,2.2-1.4,1-.1,2,0,3,.1.7,0,1.4.2,2.1.4.3,0,.3.4.6.5s.7,0,1,.2c0-.1,0-.2,0-.3.2-.2.5,0,.7,0,.4-.3-.4-.8-.6-1.2,0,0,0,0,0-.1.4.4.9.8,1.3,1.1.3.1,1,.3.8,0-.4-.6-.8-1.2-1.3-1.7v-.2q-.1,0-.2-.1v-.2c-.2-.1-.2-.3-.3-.5s0-.7-.2-1c-.1-.3-.2-.7-.2-1-.2-1-.4-1.8-.5-2.7-.1-1.1.6-1.9,1.1-2.8.4-.7.9-1.3,1.6-1.8.2-.7.6-1.3,1.1-1.8.5-.5,1.1-.9,1.7-1.1.5-.2,1-.4,1.5-.6h-38.8v29.6h27.5c1.2-.7,2.4-1.3,3.7-1.9,1-.4,2-1,2.9-1.6h0Z"/>
  <path class="st2" d="M131.9,50.9h-32.2c.1,0,.2,0,.3.1l.8.4c.4.2.8.5,1.1.9.1.2.3.5.2.7s-.2.7-.4.8c-.4.2-.8.2-1.2.1-.2,0-.5,0-.7-.1.9.3,1.6.8,2.2,1.5,0,.1.3.2.5.2s0,.1,0,.2-.2.2-.2.3h.2c.3-.1.2-.7.6-.5.3.2.4.5.2.8-.2.2-.4.4-.7.6,0,.1,0,.3,0,.4.1.2.2.4.3.7.2.4.2.8.4,1.2.3.8.4,1.7.4,2.5,0,.5-.2.8,0,1.3.1.4.4.8.6,1.2.2.3.4.6.6.9.3.6,1,1.1.7,1.8-.2.4-.8.3-1.2.6s0,.7.1,1c.3.5-.3.8-.7,1,.1.2.3.1.4.2,0,.3.3.4.2.7s-.9.5-.6,1c.2.4.1.8,0,1.2-.2.4-.5.7-1,.8-.4,0-.7.1-1.1,0-.1,0-.2-.1-.3-.1-1-.2-1.9-.3-2.9-.4-.3,0-.5.1-.8.2-.3.2-.5.4-.7.6h-.1c0,.1,0,.2,0,.2h0c-.2.3-.3.5-.4.7h0s0,0,0,0c-.2.3-.3.7-.4,1-.3.9-.3,1.8,0,2.7,0,0,1.9.6,3.1,1.2.5.2.9.4,1.3.7h31.6v-29.6h-.2Z"/>
  <path class="st17" d="M101.6,61.8c.2,0,.6,0,.6.2-.1.5-.8.6-1.1,1h-.2c-.2.1-.1.4-.3.4-.2,0-.3,0-.5,0,.2.2.5.4.8.3,0,0,.2.1.2.2,0,0,0,0,.1,0h.1v.2c-.2.2-.5.1-.7.2.4.1.9.1,1.3,0,.3-.1,0-.7.2-1-.1,0,0-.2-.1-.2.1-.1.2-.3.3-.3.1,0,.3,0,.3-.2,0-.1-.2-.2-.2-.3.3-.2.6-.6.5-.9,0-.2-.5-.2-.8-.3-.3,0-.7,0-1,0-.3,0-.6.1-.8.2-.4.1-.8.3-1.1.6.4-.1.8-.3,1.2-.3.3,0,.7,0,1,0h0Z"/>
  <path class="st9" d="M437.8,88.3c9.8-11.1,13.1-28.3,13.5-37.5h-24.6v.2h2.1c0,11.1,3.4,24.6,8.9,37.4"/>
  <path class="st19" d="M522.4,75.9h-.1l.8,2.3c-14.9,5.3-25.9,12-34.1,20.1,6.2,2.7,12.8,4.1,19.6,4.1,6.7,0,13.3.3,21.7-3l-7.8-23.5Z"/>
  <path class="st18" d="M485,74.5c-11-6.5-16.3-20.3-16.7-23.6h-13.1c0,9.1,8.7,31.3,25.9,43.1,1.1.7,2.2,1.4,3.5,2.1,6.8-6.9,15.4-12.9,26.6-18-9.9.8-21.2-.7-26.2-3.7"/>
  <path class="st18" d="M530.2,99.5l-7.8-23.6c-35.9,12.8-49.7,33.6-58.2,63,9,.5,18,2,26.6,4.6,5.1-23.1,12-34.2,39.4-44"/>
  <path class="st4" d="M500.4,151.7c1.5,12.1,7.6,27,23,44.1l16.3-14.7c-11.3-13.2-24.5-23.1-39.3-29.4"/>
  <path class="st10" d="M521.9,128.7c1.6-5.9,6.4-10.5,13.1-12.6l-3.8-13c-14.6,4.5-25.7,15.6-29.5,29.6-1.2,4.6-1.8,9.3-1.6,14,12.2,4.9,23.4,12,33,20.9-8.4-14.2-13.2-31-11-38.9"/>
  <path class="st10" d="M523.3,195.8l18.2-16.4c-25.7-30-57.8-39.5-88.8-38.7,2.6,8.6,4.6,17.4,6.1,26.2,17.6-1.4,43.2,3.9,64.5,28.9"/>
  <path class="st13" d="M456.1,180.1c-19.6,9.3-20.9,28.4-22.3,39.8l20.8,3.7c2.7-12.6,3.1-27.6,1.5-43.4"/>
  <path class="st14" d="M461,209.7c2.5-5.1,6.1-9.4,11-11.6,14.9-6.4,30.1,0,37.9,9.6l9.3-8.3c-12.9-16.1-35.5-28.4-56.8-21.9-.7.2-1.4.5-2.1.7,1.2,10.4,1.4,20.9.7,31.4"/>
  <path class="st14" d="M447,130.4c-8.1,4.1-16.9,5.6-25.3,6.2,11.3,19.9,17,46,12.1,83.3l23,4.1c6-28.1.8-64.4-9.8-93.6"/>
  <path class="st1" d="M356.7,93.4l-10.4,19.9c22.6,11.8,42.4,18.1,60.5,19-8.6-13.1-23.1-26.7-50.1-38.8"/>
  <path class="st0" d="M402.2,161.3c7.7,20.4-6.9,42.5-11.5,51l11.7,2.4c8.2-15.3,22.8-39.1,12.9-65.5-1.6-4.3-3.5-8.4-5.8-12.4-12.4-.2-25.6-2.9-39.8-8.1,14.7,9.4,27.9,20.5,32.4,32.6"/>
  <path class="st0" d="M439.5,101.6c-19.7,13.1-46.9,10.5-82.8-8.4l-11.5,21.8c24.6,12.9,46.5,19.4,66.1,19.4s31.4-1.5,44-12.3c-6.2-6.1-11.5-13-15.8-20.5"/>
  <path class="st8" d="M411.7,83.2c-14.9,7.5-38.3-1-46.5-5.7l-6.5,12.1c9.6,5.5,26.5,10.6,44.5,10.6,7.1,0,14.2-.9,21-2.9,3.7-1.2,7.1-3.1,10.1-5.6-4.3-9.1-7.3-18.8-8.9-28.7-2.4,9.3-7.6,17.1-13.7,20.2"/>
  <path class="st8" d="M451.4,50.8h-24.6c.2,25.6,16.7,63,38.8,76.4,2.9-8,6.9-15.7,11.9-22.6-15.5-14.1-26-36.4-26.1-53.7"/>
  <path class="st12" d="M522.3,76.1h-.1l.8,2.2c-14.9,5.3-25.9,12.1-34.1,20.1,6.2,2.7,12.9,4.1,19.6,4.1,6.7,0,13.3.3,21.7-3l-7.8-23.4Z"/>
  <path class="st7" d="M500.5,151.6c1.5,12.1,7.6,27,23,44.1l16.3-14.7c-11.3-13.3-24.4-23.1-39.3-29.4"/>
  <path class="st3" d="M456.3,180.1c-19.6,9.3-20.9,28.4-22.3,39.8l20.8,3.7c2.7-12.6,3.1-27.6,1.5-43.4"/>
  <path class="st6" d="M356.7,93.5l-10.4,19.9c22.6,11.8,42.4,18.1,60.5,19-8.6-13.1-23.1-26.7-50.1-38.8"/>
  <path class="st5" d="M437.7,88.3c9.8-11.1,13.1-28.3,13.5-37.5h-24.6c0,.1,2.2.1,2.2.1,0,11.1,3.4,24.6,8.9,37.4"/>
  <g class="st11">
    <g class="st11">
      <path class="st12" d="M619.1,152.7l12,9.2c-6.8,9.3-18,15.3-31.6,15.3-23.7,0-39.8-18.2-39.8-39.6s16.2-39.6,39.8-39.6,24.7,6.1,31.6,15.2l-12,9.3c-4.3-6.1-11-10.3-19.6-10.3-14.1,0-24.2,11-24.2,25.4s10.1,25.4,24.2,25.4,15.3-4.2,19.6-10.3Z"/>
    </g>
    <g class="st11">
      <path class="st12" d="M664.3,177.2c-19.2,0-30-13.4-30-29.1s10.1-29.1,27.7-29.1,24.8,10.1,24.8,24.2-.4,5.9-.9,7.7h-37.8c1.3,10.1,7.5,14.1,15.9,14.1s11-2.6,13.9-6.4l9.7,7.7c-5,6.7-13.4,10.9-23.5,10.9ZM648.7,141h24.8c-.2-5.5-4.3-10.9-11.8-10.9s-11.6,3.9-13.1,10.9Z"/>
    </g>
    <g class="st11">
      <path class="st12" d="M696.9,121.1h13.6v5.4c3.5-3.6,8.1-6.4,14.2-6.4s3.4.3,4.7.7v13.4c-1.7-.4-3.5-.7-6-.7-6.6,0-10.9,3.6-13,7.1v34.6h-13.6v-53.9Z"/>
    </g>
    <g class="st11">
      <path class="st12" d="M761,177.2c-19.2,0-30-13.4-30-29.1s10.1-29.1,27.7-29.1,24.8,10.1,24.8,24.2-.4,5.9-.9,7.7h-37.8c1.3,10.1,7.5,14.1,15.9,14.1s11-2.6,13.9-6.4l9.7,7.7c-5,6.7-13.4,10.9-23.5,10.9ZM745.4,141h24.8c-.2-5.5-4.3-10.9-11.8-10.9s-11.6,3.9-13.1,10.9Z"/>
      <path class="st12" d="M796.9,121.1h13.6v4.1c3.6-3.5,8.2-6.2,14.9-6.2s12.8,3,16.4,8.8c3.9-4.7,9-8.8,18.1-8.8s19.9,7.7,19.9,22.9v33.2h-13.7v-32.6c0-6.5-3.5-10.6-9.6-10.6s-9.1,4.1-11.2,7.7c.1.7.1,1.5.1,2.4v33.2h-13.7v-32.6c0-6.5-3.5-10.6-9.6-10.6s-9.4,4.6-11.5,8v35.2h-13.6v-53.9Z"/>
      <path class="st12" d="M892.2,160.5c0-8.1,6.3-14.2,17.9-16.2l16.5-2.8v-1.4c0-5.7-4.3-9.3-10.5-9.3s-9.3,2.5-12.2,6.4l-10-7.6c4.8-6.6,12.7-10.7,22.6-10.7,15.6,0,23.7,9.3,23.7,21.2v34.9h-13.6v-5.2c-3.4,4.2-9.8,6.8-16.2,6.8-10.8,0-18.2-6.2-18.2-16.2ZM913.2,165.9c6.2,0,10.7-2.9,13.4-7.2v-7.6l-12.8,2.1c-5.7,1-8,3.3-8,6.6s2.9,6,7.5,6Z"/>
    </g>
  </g>
  <g class="st11">
    <g class="st11">
      <path class="st15" d="M575.2,204l1.4,1.2c-1.2,1.7-3.1,2.9-5.4,2.9-4,0-6.7-3.4-6.7-7.4s2.7-7.4,6.7-7.4,4.2,1.2,5.4,2.9l-1.4,1.2c-.9-1.4-2.3-2.3-4-2.3-2.9,0-5,2.5-5,5.6s2.1,5.6,5,5.6,3.1-.9,4-2.3Z"/>
      <path class="st15" d="M581.3,193.7h1.7v12.2h5.2v1.7h-6.9v-13.9Z"/>
      <path class="st15" d="M592.7,193.7h1.7v13.9h-1.7v-13.9Z"/>
      <path class="st15" d="M600.3,193.7h2.2l3.9,7,3.9-7h2.2v13.9h-1.7v-11.4l-3.7,6.6h-1.3l-3.7-6.6v11.4h-1.7v-13.9Z"/>
    </g>
    <g class="st11">
      <path class="st15" d="M621.9,193.7h2.3l5.1,13.9h-1.8l-1.5-4.1h-5.9l-1.5,4.1h-1.8l5.1-13.9ZM625.4,201.9l-2.4-6.6-2.4,6.6h4.7Z"/>
    </g>
    <g class="st11">
      <path class="st15" d="M631,193.7h10.2v1.7h-4.2v12.2h-1.7v-12.2h-4.2v-1.7Z"/>
    </g>
    <g class="st11">
      <path class="st15" d="M661.5,207.6l-1.4-1.5c-1,1.2-2.4,1.8-4.1,1.8-2.6,0-4.4-1.7-4.4-4.3s1.1-3.2,2.5-3.8c-.8-1-1.3-1.9-1.3-3.1,0-1.9,1.4-3.4,3.4-3.4s3.3,1.4,3.3,3.4-1.2,3-2.9,3.6l3.2,3.4c.5-1,1-2.2,1.3-3.6h1.6c-.4,1.8-1,3.5-1.8,4.8l2.5,2.7h-2ZM656.1,206.4c1.1,0,2.1-.5,2.9-1.4l-3.9-4s0,0,0,0c-1.1.5-1.8,1.4-1.8,2.8s1.3,2.8,2.9,2.8ZM655.7,199.3c1.6-.5,2.4-1.3,2.4-2.6s-.7-1.9-1.8-1.9-1.9.8-1.9,1.9.6,1.7,1.3,2.5Z"/>
    </g>
    <g class="st11">
      <path class="st15" d="M673.2,193.7h10.2v1.7h-4.2v12.2h-1.7v-12.2h-4.2v-1.7Z"/>
    </g>
    <g class="st11">
      <path class="st15" d="M687.9,193.7h6.9v1.6h-5.2v4.5h4.4v1.6h-4.4v4.7h5.2v1.6h-6.9v-13.9Z"/>
      <path class="st15" d="M700,193.7h3.4c2.6,0,4.2,1.5,4.2,3.9s-.8,2.9-2.2,3.5l4.1,6.5h-2l-3.7-6.1c-.1,0-.3,0-.4,0h-1.7v6.1h-1.7v-13.9ZM701.8,195.3v4.6h1.8c1.5,0,2.3-.9,2.3-2.3s-.9-2.3-2.3-2.3h-1.8Z"/>
      <path class="st15" d="M713.6,193.7h3.4c2.6,0,4.2,1.5,4.2,3.9s-.8,2.9-2.2,3.5l4.1,6.5h-2l-3.7-6.1c-.1,0-.3,0-.4,0h-1.7v6.1h-1.7v-13.9ZM715.3,195.3v4.6h1.8c1.5,0,2.3-.9,2.3-2.3s-.9-2.3-2.3-2.3h-1.8Z"/>
      <path class="st15" d="M727.1,193.7h1.7v13.9h-1.7v-13.9Z"/>
    </g>
    <g class="st11">
      <path class="st15" d="M733.3,193.7h10.2v1.7h-4.2v12.2h-1.7v-12.2h-4.2v-1.7Z"/>
    </g>
    <g class="st11">
      <path class="st15" d="M759.7,200.6c0,4-2.7,7.4-6.7,7.4s-6.7-3.4-6.7-7.4,2.7-7.4,6.7-7.4,6.7,3.4,6.7,7.4ZM757.9,200.6c0-3.1-2.1-5.6-4.9-5.6s-5,2.5-5,5.6,2.1,5.6,5,5.6,4.9-2.5,4.9-5.6Z"/>
      <path class="st15" d="M764.5,193.7h1.7v13.9h-1.7v-13.9Z"/>
      <path class="st15" d="M772.1,193.7h3.4c2.6,0,4.2,1.5,4.2,3.9s-.8,2.9-2.2,3.5l4.1,6.5h-2l-3.7-6.1c-.1,0-.3,0-.4,0h-1.7v6.1h-1.7v-13.9ZM773.8,195.3v4.6h1.8c1.5,0,2.3-.9,2.3-2.3s-.9-2.3-2.3-2.3h-1.8Z"/>
      <path class="st15" d="M785.6,193.7h6.9v1.6h-5.2v4.5h4.4v1.6h-4.4v4.7h5.2v1.6h-6.9v-13.9Z"/>
    </g>
    <g class="st11">
      <path class="st15" d="M798.1,204.4c.9,1.2,1.9,1.9,3.1,1.9s2.2-.9,2.2-2.2c0-3.1-6.1-2.5-6.1-7.1s1.6-3.8,3.8-3.8,3.1.9,4.1,2.3l-1.3,1.2c-.7-1.2-1.6-1.8-2.7-1.8s-2.1.9-2.1,2c0,3.1,6,2.4,6,7s-1.7,3.9-4,3.9-3.3-.8-4.4-2.3l1.3-1.3Z"/>
    </g>
    <g class="st11">
      <path class="st15" d="M817.1,193.7h4.9c4,0,6.7,3.2,6.7,7s-2.7,7-6.7,7h-4.9v-13.9ZM818.8,195.4v10.5h3.2c2.8,0,4.9-2.3,4.9-5.2s-2.1-5.2-4.9-5.2h-3.2Z"/>
      <path class="st15" d="M833.5,193.7h6.9v1.6h-5.2v4.5h4.4v1.6h-4.4v4.7h5.2v1.6h-6.9v-13.9Z"/>
      <path class="st15" d="M852.4,193.7h4.9c4,0,6.7,3.2,6.7,7s-2.7,7-6.7,7h-4.9v-13.9ZM854.1,195.4v10.5h3.2c2.8,0,4.9-2.3,4.9-5.2s-2.1-5.2-4.9-5.2h-3.2Z"/>
      <path class="st15" d="M868.8,193.7h6.9v1.6h-5.2v4.5h4.4v1.6h-4.4v4.7h5.2v1.6h-6.9v-13.9Z"/>
      <path class="st15" d="M881,193.7h2.2l3.9,7,3.9-7h2.2v13.9h-1.7v-11.4l-3.7,6.6h-1.3l-3.7-6.6v11.4h-1.7v-13.9Z"/>
      <path class="st15" d="M902.6,193.7h2.3l5.1,13.9h-1.8l-1.5-4.1h-5.9l-1.5,4.1h-1.8l5.1-13.9ZM906.1,201.9l-2.4-6.6-2.4,6.6h4.7Z"/>
      <path class="st15" d="M914.3,193.7h1.7v13.9h-1.7v-13.9Z"/>
    </g>
    <g class="st11">
      <path class="st15" d="M922,193.7h2.2l7.2,11.6v-11.6h1.7v13.9h-2.2l-7.2-11.6v11.6h-1.7v-13.9Z"/>
    </g>
  </g>
</svg>